#!OML:ASF \\sashay\E\basketball\basketball\Project 1\Capture day 1\Session 1\Subject.ASF
:FULLY-SPECIFIED
:DEGREES
1
root -35.3731 15.1266 15.2649 -134.184 80.1737 -142.206
lowerback 17.8885 -0.132307 -12.3003
upperback 6.91826 -1.54422 4.95873
thorax -1.87698 -0.865233 12.8632
lowerneck -7.83453 1.91601 -7.79069
upperneck -14.7926 4.94193 11.5743
head -3.53831 2.79419 4.82112
rclavicle -3.97569e-016 -2.22639e-014
rhumerus -18.0523 -1.30641 -94.1705
rradius 93.7156
rwrist -15.3517
rhand -19.2031 23.8557
rfingers 7.12502
rthumb 7.10911 -6.00487
lclavicle -3.97569e-016 -2.22639e-014
lhumerus -37.0735 -29.7705 77.8086
lradius 86.3953
lwrist 26.1449
lhand -30.8672 19.7316
lfingers 7.12502
lthumb -4.15486 49.6708
rfemur -58.1667 8.05835 14.6331
rtibia 53.2722
rfoot -9.77454 4.36201
rtoes -40.3062
lfemur 20.0568 2.20916 -35.8707
ltibia 27.0893
lfoot 21.9987 8.61328
ltoes -18.0719
2
root -34.8373 15.1392 15.0667 -135.161 80.3423 -143.543
lowerback 17.1792 -0.302995 -12.4449
upperback 6.80959 -1.73721 4.96463
thorax -1.55647 -0.992584 12.9604
lowerneck -7.65382 2.66538 -8.35769
upperneck -16.2899 6.11487 10.8689
head -4.146 3.43983 4.66843
rclavicle 3.93594e-014 -4.53229e-014
rhumerus -19.0393 -0.57393 -94.2824
rradius 94.0367
rwrist -15.231
rhand -19.203 23.928
rfingers 7.12502
rthumb 7.1092 -5.93257
lclavicle 3.93594e-014 -4.53229e-014
lhumerus -39.6586 -29.7384 79.7959
lradius 86.7996
lwrist 26.5603
lhand -31.2714 20.1372
lfingers 7.12502
lthumb -4.54517 50.0684
rfemur -57.4443 6.44591 15.6721
rtibia 52.2868
rfoot -10.5113 4.05377
rtoes -42.5263
lfemur 17.6691 1.93582 -36.8855
ltibia 32.6326
lfoot 21.3942 8.314
ltoes -5.70742
3
root -34.2588 15.1247 14.8363 -133.223 81.0876 -140.655
lowerback 16.9769 -0.120967 -12.6385
upperback 7.23292 -1.45813 5.08848
thorax -1.04829 -0.913709 13.1574
lowerneck -9.51895 3.66168 -9.90863
upperneck -15.7902 7.75209 11.027
head -3.9286 4.415 4.987
rclavicle -2.72335e-014 -1.39149e-014
rhumerus -19.5251 0.450428 -93.9501
rradius 94.0304
rwrist -15.2481
rhand -19.219 23.902
rfingers 7.12502
rthumb 7.09371 -5.95911
lclavicle -2.72335e-014 -1.39149e-014
lhumerus -42.3876 -29.0218 82.6331
lradius 86.6526
lwrist 26.4012
lhand -31.7638 20.9327
lfingers 7.12502
lthumb -5.02068 50.8532
rfemur -55.5508 5.2293 17.0902
rtibia 51.8069
rfoot -10.966 4.32532
rtoes -43.9611
lfemur 16.9583 2.70271 -38.0693
ltibia 37.8548
lfoot 19.4502 8.31384
ltoes 0.030454
4
root -33.7034 15.1052 14.6054 -128.975 81.1998 -135.723
lowerback 16.8292 -0.0329039 -12.0878
upperback 7.53724 -1.19809 5.34918
thorax -0.73402 -0.807372 13.0717
lowerneck -10.2769 4.07349 -10.124
upperneck -15.2623 8.29319 10.569
head -3.70796 4.7296 4.88733
rclavicle -3.57812e-015 2.46493e-014
rhumerus -19.8011 1.47574 -93.6226
rradius 94.0953
rwrist -14.4362
rhand -19.2646 23.8576
rfingers 7.12502
rthumb 7.04977 -6.00504
lclavicle -3.57812e-015 2.46493e-014
lhumerus -44.8978 -28.1168 85.7939
lradius 85.5269
lwrist 25.6846
lhand -32.4764 21.9092
lfingers 7.12502
lthumb -5.70869 51.8123
rfemur -53.7035 3.92451 18.8347
rtibia 51.4267
rfoot -11.0513 5.20501
rtoes -44.8388
lfemur 15.768 4.08659 -37.9488
ltibia 43.0171
lfoot 18.1658 8.61261
ltoes 3.25877
5
root -33.1745 15.0729 14.3808 -125.244 80.9248 -131.685
lowerback 16.7371 -0.0912484 -11.1953
upperback 7.63144 -1.1089 5.59513
thorax -0.64761 -0.750795 12.7936
lowerneck -10.152 4.2921 -9.97366
upperneck -15.0014 8.46706 10.1012
head -3.64955 4.80483 4.70548
rclavicle 8.34896e-015 -3.85642e-014
rhumerus -19.9457 1.88213 -93.2682
rradius 94.5948
rwrist -14.1573
rhand -19.2891 23.8231
rfingers 7.12502
rthumb 7.02608 -6.04025
lclavicle 8.34896e-015 -3.85642e-014
lhumerus -46.9728 -27.0394 89.1039
lradius 82.9453
lwrist 24.56
lhand -33.3452 23.0183
lfingers 7.12502
lthumb -6.5475 52.8971
rfemur -52.0928 2.6133 20.2517
rtibia 51.2853
rfoot -11.2456 5.3589
rtoes -45.8457
lfemur 13.9826 5.53927 -37.2345
ltibia 48.1973
lfoot 17.617 8.91172
ltoes 6.65062
6
root -32.6376 15.0356 14.1515 -121.371 80.7676 -127.253
lowerback 16.7909 -0.0643161 -10.2674
upperback 7.84223 -0.912034 5.68106
thorax -0.545977 -0.637296 12.292
lowerneck -10.0334 4.53745 -9.7814
upperneck -14.7763 8.71144 9.82031
head -3.61035 4.91228 4.57535
rclavicle -2.36554e-014 1.35174e-014
rhumerus -20.1067 3.02239 -93.4346
rradius 95.09
rwrist -11.0209
rhand -19.4682 23.7762
rfingers 7.12502
rthumb 6.85321 -6.0929
lclavicle -2.36554e-014 1.35174e-014
lhumerus -49.8808 -25.3879 92.2199
lradius 81.2598
lwrist 23.4156
lhand -34.0775 24.9227
lfingers 7.12502
lthumb -7.25436 54.7783
rfemur -50.0785 1.57924 21.2214
rtibia 51.2726
rfoot -11.2729 5.83335
rtoes -46.7943
lfemur 12.3943 7.59204 -36.0282
ltibia 53.6049
lfoot 15.2246 9.51202
ltoes 2.61255
7
root -32.0963 14.9959 13.9242 -116.775 80.6222 -121.93
lowerback 16.9002 0.0902087 -9.48251
upperback 8.18814 -0.557355 5.83416
thorax -0.353064 -0.454853 11.9303
lowerneck -10.1315 4.77412 -9.59392
upperneck -14.6689 8.9832 9.48638
head -3.57268 5.04828 4.4364
rclavicle 2.80286e-014 -2.46493e-014
rhumerus -19.7184 3.41058 -93.2723
rradius 95.6536
rwrist -10.6073
rhand -19.5212 23.7496
rfingers 7.12502
rthumb 6.80202 -6.12114
lclavicle 2.80286e-014 -2.46493e-014
lhumerus -52.1001 -23.6413 95.3283
lradius 78.5996
lwrist 22.755
lhand -34.5979 26.9009
lfingers 7.12502
lthumb -7.75668 56.7386
rfemur -47.691 1.05777 21.7686
rtibia 51.2808
rfoot -11.1314 6.69983
rtoes -46.3764
lfemur 11.0877 9.63534 -34.7416
ltibia 58.9943
lfoot 12.4471 9.97322
ltoes 0.194036
